<svg width="436" height="64" xmlns="http://www.w3.org/2000/svg" xmlns:svg="http://www.w3.org/2000/svg">
 <linearGradient y2="0.575272" x2="0.7029" y1="0.262484" x1="-0.140241" id="SVGID_1_">
  <stop stop-color="#2085C7" offset="0"/>
  <stop stop-color="#95C4EA" offset="0.5576"/>
  <stop stop-color="#2085C7" offset="1"/>
 </linearGradient>
 <defs>
  <linearGradient y2="0.057682" x2="1.019108" y1="0.556922" x1="0.184531" id="svg_15">
   <stop stop-color="#2090BF" offset="0"/>
   <stop stop-color="#2085C7" offset="1"/>
  </linearGradient>
 </defs>
 <linearGradient y2="0.815171" x2="1.097398" y1="0.498778" x1="0.256373" id="SVGID_2_">
  <stop stop-color="#2085C7" offset="0"/>
  <stop stop-color="#95C4EA" offset="0.5576"/>
  <stop stop-color="#2085C7" offset="1"/>
 </linearGradient>
 <linearGradient y2="0.759641" x2="1.040132" y1="0.241555" x1="-0.041383" id="SVGID_3_">
  <stop stop-color="#2090BF" offset="0"/>
  <stop stop-color="#2085C7" offset="1"/>
 </linearGradient>
 <linearGradient y2="0.784934" x2="1.026224" y1="0.216419" x1="-0.02647" id="SVGID_4_">
  <stop stop-color="#2090BF" offset="0"/>
  <stop stop-color="#2085C7" offset="1"/>
 </linearGradient>
 <linearGradient y2="0.784804" x2="1.026303" y1="0.216285" x1="-0.026162" id="SVGID_5_">
  <stop stop-color="#2090BF" offset="0"/>
  <stop stop-color="#2085C7" offset="1"/>
 </linearGradient>
 <linearGradient y2="0.906868" x2="1.042939" y1="0.382201" x1="-0.17601" id="SVGID_6_">
  <stop stop-color="#2090BF" offset="0"/>
  <stop stop-color="#2085C7" offset="1"/>
 </linearGradient>
 <linearGradient y2="0.942318" x2="1.019108" y1="0.443078" x1="0.184531" id="SVGID_7_">
  <stop stop-color="#2090BF" offset="0"/>
  <stop stop-color="#2085C7" offset="1"/>
 </linearGradient>
 <linearGradient y2="0.815151" x2="0.931865" y1="0.266515" x1="-0.099213" id="SVGID_8_">
  <stop stop-color="#2090BF" offset="0"/>
  <stop stop-color="#2085C7" offset="1"/>
 </linearGradient>
 <linearGradient y2="0.821637" x2="1.061794" y1="0.17839" x1="-0.061752" id="SVGID_9_">
  <stop stop-color="#2090BF" offset="0"/>
  <stop stop-color="#2085C7" offset="1"/>
 </linearGradient>
 <linearGradient y2="0.617689" x2="1.904616" y1="0.382326" x1="-0.904902" id="SVGID_10_">
  <stop stop-color="#2090BF" offset="0"/>
  <stop stop-color="#2085C7" offset="1"/>
 </linearGradient>
 <linearGradient y2="0.797428" x2="1.078043" y1="0.202576" x1="-0.078076" id="SVGID_11_">
  <stop stop-color="#2090BF" offset="0"/>
  <stop stop-color="#2085C7" offset="1"/>
 </linearGradient>
 <g>
  <title>Layer 1</title>
  <polygon id="svg_1" points="13.351,60.483 11.9,64 0,64 0,33.994 25.002,33.994 23.179,37.775 4.275,37.813   4.275,60.474 " fill="url(#SVGID_1_)"/>
  <polygon id="svg_2" points="13.085,64 20.797,64 40.893,18.053 47.553,33.994 35.311,33.994 33.573,37.765   48.753,37.765 59.845,64 67.093,64 41.125,0.082 " fill="url(#SVGID_2_)"/>
  <path id="svg_7" d="m229.187,48.333l15.142,-26.164l4.522,0l15.489,26.164l-5.364,0l-3.413,-6.117l-18.08,0l-3.35,6.117l-4.946,0zm10.369,-9.885l13.899,0l-6.967,-12.447l-6.932,12.447z" fill="url(#SVGID_7_)"/>
  <path id="svg_8" d="m283.596,22.169c2.501,0 4.6,0.162 6.286,0.5c1.71,0.328 3.113,0.836 4.218,1.514c1.784,1.132 3.184,2.659 4.197,4.597c0.994,1.94 1.505,4.078 1.505,6.405c0,4.401 -1.346,7.703 -4.02,9.877c-2.677,2.18 -6.735,3.271 -12.187,3.271l-15.062,0l0,-26.164l15.063,0zm-0.535,3.885l-9.588,0l0,18.329l9.588,0c4.266,0 7.294,-0.716 9.096,-2.154c1.795,-1.443 2.702,-3.799 2.702,-7.103c0,-3.213 -0.92,-5.53 -2.74,-6.95c-1.816,-1.411 -4.843,-2.122 -9.058,-2.122z" fill="url(#SVGID_8_)"/>
  <path id="svg_9" d="m308.471,27.02c0,0.382 0.023,0.904 0.053,1.567c0.052,1.085 0.067,1.777 0.067,2.077l0,17.669l-4.07,0l0,-26.164l4.07,0l13.025,16.975l11.966,-16.975l4.583,0l0,26.164l-4.583,0l0,-17.669c0,-0.638 0.023,-1.27 0.075,-1.862c0.047,-0.609 0.131,-1.186 0.232,-1.758c-0.285,0.826 -0.579,1.557 -0.874,2.191c-0.305,0.63 -0.593,1.108 -0.849,1.429l-10.072,13.542l-1.299,0l-10.427,-13.413c-0.361,-0.467 -0.709,-1.009 -1.029,-1.643c-0.312,-0.613 -0.603,-1.316 -0.868,-2.13z" fill="url(#SVGID_9_)"/>
  <path id="svg_10" d="m349.144,48.333l-4.912,0l0,-26.106l4.912,0l0,26.106z" fill="url(#SVGID_10_)"/>
  <path id="svg_11" d="m358.665,27.409c0.11,0.767 0.215,1.538 0.268,2.314c0.059,0.796 0.085,1.577 0.085,2.364l0,16.245l-4.543,0l0,-26.163l3.766,0l19.209,17.092c0.561,0.48 1.099,1.01 1.608,1.593c0.515,0.594 1.027,1.246 1.526,1.987c-0.146,-0.778 -0.253,-1.57 -0.323,-2.378c-0.069,-0.795 -0.098,-1.635 -0.098,-2.499l0,-15.795l4.548,0l0,26.164l-3.369,0l-19.601,-17.339c-0.695,-0.645 -1.271,-1.239 -1.771,-1.82c-0.492,-0.573 -0.921,-1.165 -1.305,-1.765z" fill="url(#SVGID_11_)"/>
  <path id="svg_6" transform="rotate(-47.60346984863281 98.49999999999999,26.433412551879897) " d="m82.132045,42.011402l0,-31.155975l6.393429,0l0,26.452332l26.342481,0l0,4.703642l-32.73591,0z" fill="url(#SVGID_6_)"/>
  <path id="svg_14" d="m123.423501,21.081995l16.864983,25.835994l5.036551,0l17.251467,-25.835994l-5.974361,0l-3.80136,6.040314l-20.137293,0l-3.731191,-6.040314l-5.508797,0zm11.548871,9.761076l15.480544,0l-7.759763,12.290958l-7.720781,-12.290958z" fill="url(#svg_15)"/>
  <path transform="rotate(-89.85035705566406 176.49739074707034,33.498680114746115) " id="svg_16" d="m166.624629,26.050936c0,0.345649 0.017641,0.817976 0.040651,1.417886c0.039884,0.981752 0.051389,1.607902 0.051389,1.879355l0,15.987634l-3.12167,0l0,-23.674257l3.12167,0l9.99011,15.359674l9.177862,-15.359674l3.515138,0l0,23.674257l-3.515138,0l0,-15.987634c0,-0.577288 0.017641,-1.149148 0.057525,-1.684814c0.036049,-0.551048 0.100476,-1.073141 0.177943,-1.59071c-0.218594,0.747399 -0.44409,1.408837 -0.670354,1.982506c-0.233933,0.57005 -0.454828,1.002564 -0.651179,1.293018l-7.725174,12.253355l-0.996327,0l-7.997457,-12.136631c-0.276885,-0.422561 -0.543799,-0.912984 -0.789238,-1.486654c-0.239302,-0.554667 -0.462498,-1.190771 -0.665752,-1.927311z" fill="url(#SVGID_9_)"/>
 </g>
</svg>